{
    "asset" : {
        "generator" : "Khronos glTF Blender I/O v1.8.19",
        "version" : "2.0"
    },
    "scene" : 0,
    "scenes" : [
        {
            "name" : "Scene",
            "nodes" : [
                0
            ]
        }
    ],
    "nodes" : [
        {
            "mesh" : 0,
            "name" : "Cylinder",
            "rotation" : [
                0,
                0,
                -0.7071068286895752,
                0.7071068286895752
            ],
            "scale" : [
                0.17094504833221436,
                1.1161601543426514,
                0.17094504833221436
            ]
        }
    ],
    "materials" : [
        {
            "doubleSided" : true,
            "name" : "CockPit.001",
            "pbrMetallicRoughness" : {
                "baseColorFactor" : [
                    0.046961862593889236,
                    0.046961862593889236,
                    0.046961862593889236,
                    1
                ],
                "metallicFactor" : 1,
                "roughnessFactor" : 0.7089552283287048
            }
        },
        {
            "doubleSided" : true,
            "name" : "Material.002",
            "pbrMetallicRoughness" : {
                "baseColorFactor" : [
                    0.2229347974061966,
                    0.25259801745414734,
                    0.25979921221733093,
                    1
                ],
                "metallicFactor" : 0.13467872142791748,
                "roughnessFactor" : 0.906103253364563
            }
        },
        {
            "doubleSided" : true,
            "name" : "Material.003",
            "pbrMetallicRoughness" : {
                "baseColorFactor" : [
                    0.8006130456924438,
                    0.941959023475647,
                    0.9699217081069946,
                    1
                ],
                "metallicFactor" : 0.28358209133148193,
                "roughnessFactor" : 1
            }
        }
    ],
    "meshes" : [
        {
            "name" : "Cylinder",
            "primitives" : [
                {
                    "attributes" : {
                        "POSITION" : 0,
                        "NORMAL" : 1,
                        "TEXCOORD_0" : 2
                    },
                    "indices" : 3,
                    "material" : 0
                },
                {
                    "attributes" : {
                        "POSITION" : 4,
                        "NORMAL" : 5,
                        "TEXCOORD_0" : 6
                    },
                    "indices" : 7,
                    "material" : 1
                },
                {
                    "attributes" : {
                        "POSITION" : 8,
                        "NORMAL" : 9,
                        "TEXCOORD_0" : 10
                    },
                    "indices" : 11,
                    "material" : 2
                }
            ]
        }
    ],
    "accessors" : [
        {
            "bufferView" : 0,
            "componentType" : 5126,
            "count" : 228,
            "max" : [
                -0.6509836316108704,
                1.29848051071167,
                0.7724304795265198
            ],
            "min" : [
                -1.7790017127990723,
                0.6950831413269043,
                -0.77562016248703
            ],
            "type" : "VEC3"
        },
        {
            "bufferView" : 1,
            "componentType" : 5126,
            "count" : 228,
            "type" : "VEC3"
        },
        {
            "bufferView" : 2,
            "componentType" : 5126,
            "count" : 228,
            "type" : "VEC2"
        },
        {
            "bufferView" : 3,
            "componentType" : 5123,
            "count" : 342,
            "type" : "SCALAR"
        },
        {
            "bufferView" : 4,
            "componentType" : 5126,
            "count" : 2448,
            "max" : [
                1.52211594581604,
                2.05894136428833,
                7.035917282104492
            ],
            "min" : [
                -4.616940498352051,
                -1.170060157775879,
                -7.039105415344238
            ],
            "type" : "VEC3"
        },
        {
            "bufferView" : 5,
            "componentType" : 5126,
            "count" : 2448,
            "type" : "VEC3"
        },
        {
            "bufferView" : 6,
            "componentType" : 5126,
            "count" : 2448,
            "type" : "VEC2"
        },
        {
            "bufferView" : 7,
            "componentType" : 5123,
            "count" : 3750,
            "type" : "SCALAR"
        },
        {
            "bufferView" : 8,
            "componentType" : 5126,
            "count" : 282,
            "max" : [
                0.762869656085968,
                -1.122468113899231,
                0.7398121953010559
            ],
            "min" : [
                -0.618736207485199,
                -1.279484748840332,
                -0.7430006265640259
            ],
            "type" : "VEC3"
        },
        {
            "bufferView" : 9,
            "componentType" : 5126,
            "count" : 282,
            "type" : "VEC3"
        },
        {
            "bufferView" : 10,
            "componentType" : 5126,
            "count" : 282,
            "type" : "VEC2"
        },
        {
            "bufferView" : 11,
            "componentType" : 5123,
            "count" : 468,
            "type" : "SCALAR"
        }
    ],
    "bufferViews" : [
        {
            "buffer" : 0,
            "byteLength" : 2736,
            "byteOffset" : 0
        },
        {
            "buffer" : 0,
            "byteLength" : 2736,
            "byteOffset" : 2736
        },
        {
            "buffer" : 0,
            "byteLength" : 1824,
            "byteOffset" : 5472
        },
        {
            "buffer" : 0,
            "byteLength" : 684,
            "byteOffset" : 7296
        },
        {
            "buffer" : 0,
            "byteLength" : 29376,
            "byteOffset" : 7980
        },
        {
            "buffer" : 0,
            "byteLength" : 29376,
            "byteOffset" : 37356
        },
        {
            "buffer" : 0,
            "byteLength" : 19584,
            "byteOffset" : 66732
        },
        {
            "buffer" : 0,
            "byteLength" : 7500,
            "byteOffset" : 86316
        },
        {
            "buffer" : 0,
            "byteLength" : 3384,
            "byteOffset" : 93816
        },
        {
            "buffer" : 0,
            "byteLength" : 3384,
            "byteOffset" : 97200
        },
        {
            "buffer" : 0,
            "byteLength" : 2256,
            "byteOffset" : 100584
        },
        {
            "buffer" : 0,
            "byteLength" : 936,
            "byteOffset" : 102840
        }
    ],
    "buffers" : [
        {
            "byteLength" : 103776,
            "uri" : "data:application/octet-stream;base64,"
        }
    ]
}
